<?xml version="1.0" encoding="UTF-8" standalone="no"?>
<!-- Created with Inkscape (http://www.inkscape.org/) -->

<svg
   xmlns:dc="http://purl.org/dc/elements/1.1/"
   xmlns:cc="http://creativecommons.org/ns#"
   xmlns:rdf="http://www.w3.org/1999/02/22-rdf-syntax-ns#"
   xmlns:svg="http://www.w3.org/2000/svg"
   xmlns="http://www.w3.org/2000/svg"
   xmlns:sodipodi="http://sodipodi.sourceforge.net/DTD/sodipodi-0.dtd"
   xmlns:inkscape="http://www.inkscape.org/namespaces/inkscape"
   version="1.1"
   width="175"
   height="175"
   id="svg2"
   inkscape:version="0.91 r13725"
   sodipodi:docname="GitHub-icon.svg">
  <sodipodi:namedview
     pagecolor="#ffffff"
     bordercolor="#666666"
     borderopacity="1"
     objecttolerance="10"
     gridtolerance="10"
     guidetolerance="10"
     inkscape:pageopacity="0"
     inkscape:pageshadow="2"
     inkscape:window-width="928"
     inkscape:window-height="480"
     id="namedview7"
     showgrid="false"
     inkscape:zoom="1.3485714"
     inkscape:cx="87.5"
     inkscape:cy="87.5"
     inkscape:window-x="721"
     inkscape:window-y="210"
     inkscape:window-maximized="0"
     inkscape:current-layer="svg2" />
  <defs
     id="defs4" />
  <metadata
     id="metadata7">
    <rdf:RDF>
      <cc:Work
         rdf:about="">
        <dc:format>image/svg+xml</dc:format>
        <dc:type
           rdf:resource="http://purl.org/dc/dcmitype/StillImage" />
        <dc:title></dc:title>
      </cc:Work>
    </rdf:RDF>
  </metadata>
  <path
     inkscape:connector-curvature="0"
     id="path16"
     style="fill:#000000;fill-opacity:1;fill-rule:evenodd;stroke:none"
     d="m 87.492322,6.0940978 c -46.084515,0 -83.4583692,37.3687312 -83.4583692,83.4686172 0,36.871715 23.9133232,68.158355 57.0804412,79.200405 4.175993,0.76346 5.697797,-1.81387 5.697797,-4.0274 0,-1.98296 -0.07174,-7.22985 -0.112727,-14.19325 -23.21647,5.04193 -28.114935,-11.19064 -28.114935,-11.19064 -3.796823,-9.64322 -9.269167,-12.2103 -9.269167,-12.2103 -7.578274,-5.17516 0.573879,-5.07268 0.573879,-5.07268 8.377605,0.58925 12.784174,8.60306 12.784174,8.60306 7.445052,12.75343 19.537498,9.06934 24.292493,6.93266 0.75834,-5.39037 2.915509,-9.06934 5.298131,-11.15477 -18.53321,-2.11106 -38.019468,-9.26917 -38.019468,-41.252663 0,-9.115449 3.253687,-16.560502 8.592809,-22.396644 -0.860818,-2.111054 -3.725088,-10.596261 0.819827,-22.089208 0,0 7.004396,-2.244276 22.950027,8.551818 6.655969,-1.849734 13.79871,-2.772039 20.895336,-2.807907 7.091502,0.03566 14.22912,0.958173 20.89534,2.807907 15.93538,-10.796094 22.92953,-8.551818 22.92953,-8.551818 4.55516,11.492947 1.69089,19.978154 0.8352,22.089208 5.34936,5.836142 8.57741,13.281195 8.57741,22.396644 0,32.065473 -19.51698,39.121113 -38.10655,41.186053 2.99237,2.57733 5.66193,7.6705 5.66193,15.45886 0,11.15477 -0.10248,20.1575 -0.10248,22.89367 0,2.23403 1.50643,4.83185 5.73879,4.01715 33.14152,-11.06254 57.0343,-42.32357 57.0343,-79.190155 0,-46.099886 -37.37383,-83.4686172 -83.473718,-83.4686172" />
</svg>
