<?xml version="1.0" encoding="UTF-8" standalone="no"?>
<svg
   xmlns:sketch="http://www.bohemiancoding.com/sketch/ns"
   xmlns:dc="http://purl.org/dc/elements/1.1/"
   xmlns:cc="http://creativecommons.org/ns#"
   xmlns:rdf="http://www.w3.org/1999/02/22-rdf-syntax-ns#"
   xmlns:svg="http://www.w3.org/2000/svg"
   xmlns="http://www.w3.org/2000/svg"
   version="1.1"
   width="175"
   height="175"
   id="svg2">
  <defs
     id="defs4" />
  <metadata
     id="metadata7">
    <rdf:RDF>
      <cc:Work
         rdf:about="">
        <dc:format>image/svg+xml</dc:format>
        <dc:type
           rdf:resource="http://purl.org/dc/dcmitype/StillImage" />
        <dc:title></dc:title>
      </cc:Work>
    </rdf:RDF>
  </metadata>
  <g
     transform="matrix(7.8874104,0,0,7.8874104,-101.79785,-101.79785)"
     id="g4222"
     style="fill:#000000">
    <path
       d="m 20.253553,23 0,2.4 3.97,0 c -0.16,1.03 -1.2,3.02 -3.97,3.02 -2.39,0 -4.34,-1.98 -4.34,-4.42 0,-2.44 1.95,-4.42 4.34,-4.42 1.36,0 2.27,0.58 2.79,1.08 l 1.9,-1.83 c -1.22,-1.14 -2.8,-1.83 -4.69,-1.83 -3.87,0 -7,3.13 -7,7 0,3.87 2.876447,7 6.746447,7 4.04,0 6.973553,-2.84 6.973553,-6.84 0,-0.46 -0.05,-0.81 -0.11,-1.16 l -6.61,0 z"
       id="Shape"
       sketch:type="MSShapeGroup"
       style="fill:#000000;fill-rule:evenodd;stroke:none;stroke-width:1" />
    <path
       d="m 35,23 -2,0 0,-2 -2,0 0,2 -2,0 0,2 2,0 0,2 2,0 0,-2 2,0"
       id="path45"
       sketch:type="MSShapeGroup"
       style="fill:#000000;fill-rule:evenodd;stroke:none;stroke-width:1" />
  </g>
</svg>
