<?xml version="1.0" encoding="UTF-8" standalone="no"?>
<svg
   xmlns:dc="http://purl.org/dc/elements/1.1/"
   xmlns:cc="http://creativecommons.org/ns#"
   xmlns:rdf="http://www.w3.org/1999/02/22-rdf-syntax-ns#"
   xmlns:svg="http://www.w3.org/2000/svg"
   xmlns="http://www.w3.org/2000/svg"
   id="svg2"
   height="175"
   width="175"
   version="1.1">
  <defs
     id="defs4" />
  <metadata
     id="metadata7">
    <rdf:RDF>
      <cc:Work
         rdf:about="">
        <dc:format>image/svg+xml</dc:format>
        <dc:type
           rdf:resource="http://purl.org/dc/dcmitype/StillImage" />
        <dc:title></dc:title>
      </cc:Work>
    </rdf:RDF>
  </metadata>
  <path
     id="path3204"
     d="m 87.498472,7.959207 c -43.930202,0 -79.5407783,35.610571 -79.5407783,79.540795 l 0,79.468008 18.4628653,0 0,-18.45378 0,-24.60707 0,-36.407158 c 0,-33.730231 27.347701,-61.077915 61.077913,-61.077915 33.730218,0 61.077908,27.347684 61.077908,61.077915 0,32.781528 -25.832,59.526158 -58.248424,61.005118 -10.299646,-0.0843 -19.080775,-1.75769 -22.926966,-4.12443 l 0,-26.25076 c 5.740296,3.75841 12.605675,5.9501 19.979211,5.9501 20.167909,0 36.516359,-16.34842 36.516359,-36.516347 0,-20.167917 -16.34845,-36.52544 -36.516359,-36.52544 -20.167935,0 -36.516347,16.357523 -36.516347,36.52544 l 0,79.404327 33.301724,0 c 1.104981,0.0455 2.216718,0.0728 3.332894,0.0728 43.930218,0 79.543828,-35.61057 79.543828,-79.540779 0,-43.930226 -35.61362,-79.5407946 -79.543828,-79.5407946 z m -2.559575,140.555023 5.249547,0 c -0.892615,0.0387 -1.787808,0.0636 -2.689972,0.0636 -0.857011,0 -1.711149,-0.0287 -2.559575,-0.0636 z"
     style="fill:#000000;fill-opacity:1;stroke:none" />
</svg>
