<?xml version="1.0" encoding="UTF-8" standalone="no"?>
<svg
   xmlns:sketch="http://www.bohemiancoding.com/sketch/ns"
   xmlns:dc="http://purl.org/dc/elements/1.1/"
   xmlns:cc="http://creativecommons.org/ns#"
   xmlns:rdf="http://www.w3.org/1999/02/22-rdf-syntax-ns#"
   xmlns:svg="http://www.w3.org/2000/svg"
   xmlns="http://www.w3.org/2000/svg"
   id="svg2"
   height="175"
   width="175"
   version="1.1">
  <defs
     id="defs4" />
  <metadata
     id="metadata7">
    <rdf:RDF>
      <cc:Work
         rdf:about="">
        <dc:format>image/svg+xml</dc:format>
        <dc:type
           rdf:resource="http://purl.org/dc/dcmitype/StillImage" />
        <dc:title></dc:title>
      </cc:Work>
    </rdf:RDF>
  </metadata>
  <g
     style="fill:#000000"
     id="g4222"
     transform="matrix(7.7702793,0,0,7.7702793,-98.986703,-98.986703)">
    <path
       style="fill:#000000;fill-rule:evenodd;stroke:none;stroke-width:1"
       sketch:type="MSShapeGroup"
       id="Shape"
       d="m 20,23 0,2.4 3.97,0 c -0.16,1.03 -1.2,3.02 -3.97,3.02 -2.39,0 -4.34,-1.98 -4.34,-4.42 0,-2.44 1.95,-4.42 4.34,-4.42 1.36,0 2.27,0.58 2.79,1.08 l 1.9,-1.83 C 23.47,17.69 21.89,17 20,17 c -3.87,0 -7,3.13 -7,7 0,3.87 3.13,7 7,7 4.04,0 6.72,-2.84 6.72,-6.84 0,-0.46 -0.05,-0.81 -0.11,-1.16 l -6.61,0 0,0 z" />
    <path
       style="fill:#000000;fill-rule:evenodd;stroke:none;stroke-width:1"
       sketch:type="MSShapeGroup"
       id="path45"
       d="m 35,23 -2,0 0,-2 -2,0 0,2 -2,0 0,2 2,0 0,2 2,0 0,-2 2,0" />
  </g>
</svg>
