<?xml version="1.0" encoding="UTF-8" standalone="no"?>
<svg
   xmlns:dc="http://purl.org/dc/elements/1.1/"
   xmlns:cc="http://creativecommons.org/ns#"
   xmlns:rdf="http://www.w3.org/1999/02/22-rdf-syntax-ns#"
   xmlns:svg="http://www.w3.org/2000/svg"
   xmlns="http://www.w3.org/2000/svg"
   version="1.1"
   width="175"
   height="175"
   id="svg2">
  <defs
     id="defs4" />
  <metadata
     id="metadata7">
    <rdf:RDF>
      <cc:Work
         rdf:about="">
        <dc:format>image/svg+xml</dc:format>
        <dc:type
           rdf:resource="http://purl.org/dc/dcmitype/StillImage" />
        <dc:title></dc:title>
      </cc:Work>
    </rdf:RDF>
  </metadata>
  <path
     style="fill:#000000;fill-opacity:1;stroke:none"
     d="m 88.572195,9.0328887 c -43.337211,0 -78.467097,35.1298813 -78.467097,78.4671133 l 0,78.395308 18.213644,0 0,-18.20468 0,-24.27491 0,-35.915718 c 0,-33.274923 26.978548,-60.253455 60.253453,-60.253455 33.274915,0 60.253445,26.978532 60.253445,60.253455 0,32.339028 -25.4833,58.722648 -57.462155,60.181638 -10.160616,-0.0832 -18.823213,-1.73396 -22.617487,-4.06875 l 0,-25.89642 c 5.662811,3.70768 12.435518,5.86978 19.709522,5.86978 19.89567,0 36.02344,-16.12774 36.02344,-36.023427 0,-19.89568 -16.12777,-36.032401 -36.02344,-36.032401 -19.895698,0 -36.023431,16.136721 -36.023431,36.032401 l 0,78.332487 32.852201,0 c 1.090065,0.0449 2.186795,0.0718 3.287905,0.0718 43.337225,0 78.470105,-35.12988 78.470105,-78.467099 0,-43.337234 -35.13289,-78.4671133 -78.470105,-78.4671133 z M 86.04717,147.69063 l 5.178686,0 c -0.880566,0.0382 -1.763675,0.0627 -2.653661,0.0627 -0.845443,0 -1.688051,-0.0283 -2.525025,-0.0627 z"
     id="path3204" />
</svg>
